<?xml version="1.0" standalone="no"?>
<!DOCTYPE svg PUBLIC "-//W3C//DTD SVG 20010904//EN"
 "http://www.w3.org/TR/2001/REC-SVG-20010904/DTD/svg10.dtd">
<svg version="1.0" xmlns="http://www.w3.org/2000/svg"
 width="512.000000pt" height="512.000000pt" viewBox="0 0 512.000000 512.000000"
 preserveAspectRatio="xMidYMid meet">
<metadata>
Created by potrace 1.11, written by Peter Selinger 2001-2013
</metadata>
<g transform="translate(0.000000,512.000000) scale(0.100000,-0.100000)"
fill="#000000" stroke="none">
<path d="M0 2560 l0 -2560 2560 0 2560 0 0 2560 0 2560 -2560 0 -2560 0 0
-2560z m3199 1318 c92 -287 383 -1173 385 -1175 1 -1 49 82 105 185 57 103
211 382 343 620 l239 432 315 0 314 0 0 -491 0 -491 -319 -617 c-176 -339
-385 -742 -464 -896 l-145 -280 -358 0 -357 0 -226 672 c-125 370 -229 674
-232 677 -3 3 -50 -142 -104 -322 -54 -180 -147 -484 -205 -677 l-106 -350
-370 -3 -370 -2 -381 737 c-210 406 -504 974 -653 1263 -149 289 -300 580
-336 648 l-64 122 564 0 564 0 118 -207 c65 -115 150 -264 189 -333 39 -69
142 -252 230 -407 88 -156 162 -283 165 -283 3 0 47 138 97 308 173 573 274
907 278 920 3 9 89 12 384 12 l379 0 21 -62z"/>
</g>
</svg>
